<?xml version="1.0" encoding="utf-8"?>
<!-- Svg Vector Icons : http://www.onlinewebfonts.com/icon -->
<!DOCTYPE svg PUBLIC "-//W3C//DTD SVG 1.1//EN" "http://www.w3.org/Graphics/SVG/1.1/DTD/svg11.dtd">
<svg version="1.1" xmlns="http://www.w3.org/2000/svg" xmlns:xlink="http://www.w3.org/1999/xlink" x="0px" y="0px" viewBox="0 0 256 256" enable-background="new 0 0 256 256" xml:space="preserve">
<metadata> Svg Vector Icons : http://www.onlinewebfonts.com/icon </metadata>
<g><g><g><path fill="#000000" d="M108.3,246v-11.7c-14.5-2.7-27.8-8.1-40-16.2C56.1,210,46,199.9,37.9,187.7c-8.1-12.2-13.5-25.5-16.2-40H10v-39.3h11.7c2-10.9,5.6-21.2,10.8-30.9c5.2-9.7,11.5-18.3,19-25.9c7.5-7.5,16.1-13.8,25.9-19c9.7-5.2,20-8.8,30.9-10.8V10h39.3v11.7c10.9,2,21.2,5.6,30.9,10.8c9.7,5.2,18.4,11.5,25.9,19s13.8,16.1,19,25.9s8.8,20,10.8,30.9H246v39.3h-11.7c-2.7,14.5-8.1,27.8-16.2,40c-8.1,12.2-18.2,22.3-30.4,30.4c-12.2,8.1-25.5,13.5-40,16.2V246H108.3z M118.2,39.5h19.7V19.8h-19.7V39.5z M108.3,214.2v-7.6h39.3v7.6c16.5-3.8,30.8-11.7,42.8-23.7c12-12,19.9-26.3,23.7-42.8h-7.6v-39.3h7.6c-3.8-16.5-11.7-30.8-23.7-42.8c-12-12-26.3-19.9-42.8-23.7v7.6h-39.3v-7.6c-16.5,3.8-30.8,11.7-42.8,23.7c-12,12-19.9,26.3-23.7,42.8h7.6v39.3h-7.6c3.8,16.5,11.7,30.8,23.7,42.8C77.5,202.5,91.8,210.4,108.3,214.2z M19.8,137.8h19.7v-19.7H19.8V137.8z M216.5,137.8h19.7v-19.7h-19.7V137.8z M118.2,236.2h19.7v-19.7h-19.7V236.2z"/></g></g></g>
</svg>